<mxfile host="app.diagrams.net" modified="2023-12-15T07:11:31.394Z" agent="Mozilla/5.0 (Windows NT 10.0; Win64; x64) AppleWebKit/537.36 (KHTML, like Gecko) Chrome/120.0.0.0 Safari/537.36 Edg/120.0.0.0" etag="ny8BIzz3u_f75T1mjGlm" version="22.1.9" type="github">
  <diagram name="Page-1" id="nWR7mEP1w_h45t-jmfyz">
    <mxGraphModel dx="2074" dy="1187" grid="1" gridSize="10" guides="1" tooltips="1" connect="1" arrows="1" fold="1" page="1" pageScale="1" pageWidth="2000" pageHeight="2000" math="0" shadow="0">
      <root>
        <mxCell id="0" />
        <mxCell id="1" parent="0" />
        <mxCell id="BXYyC4Ut1wMrmTJyeqbY-1" value="查询准备&lt;br&gt;阶段" style="rounded=0;whiteSpace=wrap;html=1;" vertex="1" parent="1">
          <mxGeometry x="480" y="330" width="80" height="240" as="geometry" />
        </mxCell>
        <mxCell id="BXYyC4Ut1wMrmTJyeqbY-2" value="数据查询&lt;br&gt;阶段" style="rounded=0;whiteSpace=wrap;html=1;" vertex="1" parent="1">
          <mxGeometry x="680" y="330" width="80" height="240" as="geometry" />
        </mxCell>
        <mxCell id="BXYyC4Ut1wMrmTJyeqbY-3" value="数据组装&lt;br&gt;阶段" style="rounded=0;whiteSpace=wrap;html=1;" vertex="1" parent="1">
          <mxGeometry x="880" y="330" width="80" height="240" as="geometry" />
        </mxCell>
        <mxCell id="BXYyC4Ut1wMrmTJyeqbY-16" value="页面查询条件2" style="html=1;shadow=0;dashed=0;align=center;verticalAlign=middle;shape=mxgraph.arrows2.arrow;dy=0.6;dx=40;notch=0;fillColor=#ffe6cc;strokeColor=#d79b00;" vertex="1" parent="1">
          <mxGeometry x="360" y="422.5" width="120" height="55" as="geometry" />
        </mxCell>
        <mxCell id="BXYyC4Ut1wMrmTJyeqbY-17" value="页面查询条件3" style="html=1;shadow=0;dashed=0;align=center;verticalAlign=middle;shape=mxgraph.arrows2.arrow;dy=0.6;dx=40;notch=0;fillColor=#ffe6cc;strokeColor=#d79b00;" vertex="1" parent="1">
          <mxGeometry x="360" y="490" width="120" height="55" as="geometry" />
        </mxCell>
        <mxCell id="BXYyC4Ut1wMrmTJyeqbY-18" value="页面查询条件1" style="html=1;shadow=0;dashed=0;align=center;verticalAlign=middle;shape=mxgraph.arrows2.arrow;dy=0.6;dx=40;notch=0;fillColor=#ffe6cc;strokeColor=#d79b00;" vertex="1" parent="1">
          <mxGeometry x="360" y="350" width="120" height="55" as="geometry" />
        </mxCell>
        <mxCell id="BXYyC4Ut1wMrmTJyeqbY-19" value="查询上下文" style="html=1;shadow=0;dashed=0;align=center;verticalAlign=middle;shape=mxgraph.arrows2.arrow;dy=0.6;dx=40;notch=0;" vertex="1" parent="1">
          <mxGeometry x="560" y="422.5" width="120" height="55" as="geometry" />
        </mxCell>
        <mxCell id="BXYyC4Ut1wMrmTJyeqbY-20" value="查询上下文" style="html=1;shadow=0;dashed=0;align=center;verticalAlign=middle;shape=mxgraph.arrows2.arrow;dy=0.6;dx=40;notch=0;" vertex="1" parent="1">
          <mxGeometry x="760" y="390" width="120" height="55" as="geometry" />
        </mxCell>
        <mxCell id="BXYyC4Ut1wMrmTJyeqbY-21" value="查询数据" style="html=1;shadow=0;dashed=0;align=center;verticalAlign=middle;shape=mxgraph.arrows2.arrow;dy=0.6;dx=40;notch=0;" vertex="1" parent="1">
          <mxGeometry x="760" y="460" width="120" height="55" as="geometry" />
        </mxCell>
        <mxCell id="BXYyC4Ut1wMrmTJyeqbY-22" value="报表2" style="html=1;shadow=0;dashed=0;align=center;verticalAlign=middle;shape=mxgraph.arrows2.arrow;dy=0.6;dx=40;notch=0;fillColor=#dae8fc;strokeColor=#6c8ebf;" vertex="1" parent="1">
          <mxGeometry x="960" y="422.5" width="120" height="55" as="geometry" />
        </mxCell>
        <mxCell id="BXYyC4Ut1wMrmTJyeqbY-23" value="报表1" style="html=1;shadow=0;dashed=0;align=center;verticalAlign=middle;shape=mxgraph.arrows2.arrow;dy=0.6;dx=40;notch=0;fillColor=#dae8fc;strokeColor=#6c8ebf;" vertex="1" parent="1">
          <mxGeometry x="960" y="350" width="120" height="55" as="geometry" />
        </mxCell>
        <mxCell id="BXYyC4Ut1wMrmTJyeqbY-24" value="报表3" style="html=1;shadow=0;dashed=0;align=center;verticalAlign=middle;shape=mxgraph.arrows2.arrow;dy=0.6;dx=40;notch=0;fillColor=#dae8fc;strokeColor=#6c8ebf;" vertex="1" parent="1">
          <mxGeometry x="960" y="490" width="120" height="55" as="geometry" />
        </mxCell>
        <mxCell id="BXYyC4Ut1wMrmTJyeqbY-39" value="" style="group" vertex="1" connectable="0" parent="1">
          <mxGeometry x="1230" y="180" width="482" height="460" as="geometry" />
        </mxCell>
        <mxCell id="BXYyC4Ut1wMrmTJyeqbY-8" value="" style="curved=1;endArrow=classic;html=1;rounded=0;edgeStyle=orthogonalEdgeStyle;endFill=1;" edge="1" parent="BXYyC4Ut1wMrmTJyeqbY-39">
          <mxGeometry width="50" height="50" relative="1" as="geometry">
            <mxPoint x="59.192982456140356" y="52.57142857142857" as="sourcePoint" />
            <mxPoint x="425.6257309941521" y="407.42857142857144" as="targetPoint" />
            <Array as="points">
              <mxPoint x="59.192982456140356" y="407.42857142857144" />
            </Array>
          </mxGeometry>
        </mxCell>
        <mxCell id="BXYyC4Ut1wMrmTJyeqbY-35" value="业务关联度" style="edgeLabel;html=1;align=center;verticalAlign=middle;resizable=0;points=[];" vertex="1" connectable="0" parent="BXYyC4Ut1wMrmTJyeqbY-8">
          <mxGeometry x="-0.3698" y="38" relative="1" as="geometry">
            <mxPoint x="23" as="offset" />
          </mxGeometry>
        </mxCell>
        <mxCell id="BXYyC4Ut1wMrmTJyeqbY-10" value="" style="endArrow=classic;startArrow=classic;html=1;rounded=0;edgeStyle=orthogonalEdgeStyle;" edge="1" parent="BXYyC4Ut1wMrmTJyeqbY-39">
          <mxGeometry width="50" height="50" relative="1" as="geometry">
            <mxPoint x="482.00000000000006" y="420.57142857142856" as="sourcePoint" />
            <mxPoint x="31.005847953216374" as="targetPoint" />
          </mxGeometry>
        </mxCell>
        <mxCell id="BXYyC4Ut1wMrmTJyeqbY-11" value="查询进度" style="text;html=1;strokeColor=none;fillColor=none;align=center;verticalAlign=middle;whiteSpace=wrap;rounded=0;" vertex="1" parent="BXYyC4Ut1wMrmTJyeqbY-39">
          <mxGeometry x="397.4385964912281" y="420.57142857142856" width="84.56140350877193" height="39.42857142857143" as="geometry" />
        </mxCell>
        <mxCell id="BXYyC4Ut1wMrmTJyeqbY-30" value="0" style="text;html=1;align=center;verticalAlign=middle;resizable=0;points=[];autosize=1;strokeColor=none;fillColor=none;" vertex="1" parent="BXYyC4Ut1wMrmTJyeqbY-39">
          <mxGeometry y="410.0571428571429" width="30" height="30" as="geometry" />
        </mxCell>
        <mxCell id="BXYyC4Ut1wMrmTJyeqbY-34" value="" style="curved=1;endArrow=classic;html=1;rounded=0;edgeStyle=orthogonalEdgeStyle;" edge="1" parent="BXYyC4Ut1wMrmTJyeqbY-39">
          <mxGeometry width="50" height="50" relative="1" as="geometry">
            <mxPoint x="60" y="407" as="sourcePoint" />
            <mxPoint x="425.6257309941521" y="65.71428571428571" as="targetPoint" />
            <Array as="points">
              <mxPoint x="425.6257309941521" y="407.42857142857144" />
            </Array>
          </mxGeometry>
        </mxCell>
        <mxCell id="BXYyC4Ut1wMrmTJyeqbY-40" value="可测试性" style="edgeLabel;html=1;align=center;verticalAlign=middle;resizable=0;points=[];" vertex="1" connectable="0" parent="BXYyC4Ut1wMrmTJyeqbY-34">
          <mxGeometry x="0.3824" y="58" relative="1" as="geometry">
            <mxPoint as="offset" />
          </mxGeometry>
        </mxCell>
      </root>
    </mxGraphModel>
  </diagram>
</mxfile>
